Coordinates
version=1
nRows=11
nColumns=36
inDegrees=yes

Units are S.I. units (second, meters, Newtons, ...)
If the header above contains a line with 'inDegrees', this indicates whether rotational values are in degrees (yes) or radians (no).

endheader
time	pelvis_tilt	pelvis_list	pelvis_rotation	pelvis_tx	pelvis_ty	pelvis_tz	hip_flexion_r	hip_adduction_r	hip_rotation_r	knee_angle_r	knee_angle_r_beta	ankle_angle_r	subtalar_angle_r	mtp_angle_r	hip_flexion_l	hip_adduction_l	hip_rotation_l	knee_angle_l	knee_angle_l_beta	ankle_angle_l	subtalar_angle_l	mtp_angle_l	lumbar_extension	lumbar_bending	lumbar_rotation	arm_flex_r	arm_add_r	arm_rot_r	elbow_flex_r	pro_sup_r	arm_flex_l	arm_add_l	arm_rot_l	elbow_flex_l	pro_sup_l
      3.00833330	     -4.80483899	      0.76948854	      2.08806734	      0.26286585	      0.88792979	     -0.05350137	     33.07281575	     -9.09365998	     -3.86908587	     55.63593336	      0.97103022	      2.50897732	    -20.42760313	     -7.49999987	     31.82135238	     -6.70793132	     -1.47266721	     53.69613163	      0.93717429	      8.48677539	     -7.11305105	     -7.49999987	    -20.35344916	      5.14668268	      0.50189930	    123.15847801	    -24.16505360	     32.84049827	     99.63872493	     88.39482223	    134.41522711	    -43.22813767	     44.54977814	     98.91040352	     88.59408375
      3.01250000	     -5.05103758	      0.75844076	      2.45811739	      0.26749015	      0.89794725	     -0.05505822	     31.54539058	     -9.17394992	     -4.71936928	     52.93427837	      0.92387744	      1.03586567	    -19.18067428	     -7.49999987	     30.56554140	     -6.71356672	     -1.82495722	     51.18813401	      0.89340148	      6.70801974	     -5.88013694	     -7.49999987	    -19.30752791	      5.11520746	      0.02037189	    123.68544301	    -24.78849119	     32.95794580	     99.77538553	     88.56402171	    135.35166398	    -42.79054954	     44.90680404	     98.97415903	     88.77931710
      3.01666670	     -5.12841314	      0.88934843	      2.72240623	      0.27386477	      0.90354722	     -0.05645335	     30.06425628	     -9.51329973	     -5.48296402	     50.79047034	      0.88646094	     -0.59538838	    -18.81408480	     -7.49999987	     29.24979587	     -6.62053760	     -2.45103329	     49.03560406	      0.85583274	      5.18166384	     -5.36330771	     -7.49999987	    -18.65699041	      4.72093936	     -0.32629013	    124.99789020	    -26.38645103	     33.53336855	    100.17507872	     89.65416259	    138.35618768	    -42.07667495	     46.98654674	     98.03200672	     89.94617640
      3.02083330	     -5.36809594	      0.94793709	      2.86438217	      0.27693708	      0.91506014	     -0.05662054	     28.67786111	     -9.71553730	     -6.21688365	     48.18511626	      0.84098893	     -2.15212722	    -17.77581938	     -7.49999987	     28.07070927	     -6.60838847	     -3.11039721	     46.64068193	      0.81403347	      3.30048901	     -4.71904208	     -7.49999987	    -17.79789589	      4.60326019	     -0.56402499	    126.14526889	    -26.79187959	     34.21777716	    100.08952961	     88.70577136	    139.81614298	    -41.89734995	     47.84627729	     98.11812547	     88.97104909
      3.02500000	     -5.62902212	      1.03651546	      2.96393960	      0.27912471	      0.92643190	     -0.05783178	     27.40234363	     -9.89027209	     -6.79737669	     45.50256099	      0.79416951	     -3.55750832	    -16.68029135	     -7.49999987	     26.94314809	     -6.46105645	     -3.76139726	     44.10249479	      0.76973374	      1.26029306	     -4.26370187	     -7.49999987	    -17.20314936	      4.38602087	     -0.64503686	    128.05502869	    -27.11394023	     35.22294885	     98.87486476	     88.66046595	    141.70584881	    -41.18994920	     49.26231116	     97.12310952	     88.85232713
      3.02916670	     -5.88989861	      1.07165691	      2.93812136	      0.28295110	      0.93845868	     -0.05810916	     25.87198930	     -9.92724496	     -7.49084234	     42.31750195	      0.73857974	     -5.79093168	    -15.78054144	     -7.49999987	     25.49354087	     -6.41339813	     -4.42935302	     41.03001573	      0.71610887	     -1.08027623	     -3.24856812	     -7.49999987	    -16.46565159	      4.29151557	     -0.74790592	    129.19102043	    -27.43029544	     36.09838750	     98.11614755	     88.22242789	    142.74550098	    -40.67352607	     50.24789603	     96.40478173	     88.33390565
      3.03333330	     -6.09908100	      1.07549088	      2.94426837	      0.28519931	      0.94788588	     -0.05842162	     24.57836626	     -9.86658858	     -8.12522218	     39.49193015	      0.68926421	     -7.97235645	    -14.09279087	     -7.49999987	     24.26531298	     -6.40690456	     -4.99209877	     38.31065187	      0.66864701	     -3.84414743	     -2.24814238	     -7.49999987	    -15.96952674	      4.23390025	     -0.81783142	    130.82219951	    -27.99875197	     37.36370656	     97.36324590	     88.91931433	    144.21971392	    -40.24794343	     51.40164098	     95.73478108	     88.91908852
      3.03750000	     -6.36602720	      1.23829065	      2.85304971	      0.29032586	      0.95528628	     -0.05926394	     23.31304687	    -10.03851331	     -8.60144496	     36.75398835	      0.64147811	    -10.25936242	    -12.78700263	     -7.49999987	     23.25604963	     -6.28414993	     -5.67908445	     36.06858347	      0.62951554	     -6.53361589	     -1.43542280	     -7.49999987	    -15.06628569	      4.19621370	     -0.71623042	    131.72408328	    -28.16094190	     38.37006386	     96.38747343	     89.08534607	    144.58653952	    -40.64120291	     52.19473219	     95.31783677	     89.04489008
      3.04166670	     -6.56108742	      1.29375751	      2.94393436	      0.29204354	      0.96484179	     -0.05761320	     22.20016252	    -10.03319473	     -9.13343755	     34.16766998	      0.59633834	    -12.42496500	    -11.29736816	     -7.49999987	     22.41815917	     -6.34611686	     -6.18712720	     33.85587609	      0.59089651	     -9.58520362	     -0.53247410	     -7.49999987	    -14.83203450	      4.22643863	     -0.85723784	    134.17374867	    -28.50986926	     40.05989439	     95.31491391	     89.38052958	    146.53433461	    -41.03261228	     53.58854732	     94.72276128	     89.29069226
      3.04583330	     -6.83688512	      1.36367717	      3.04587430	      0.29535114	      0.97778083	     -0.05800529	     20.89301626	     -9.94972125	     -9.60460009	     31.18531818	      0.54428648	    -14.93428060	     -9.55106748	     -7.49999987	     21.40812628	     -6.25470386	     -6.74562737	     31.10091960	      0.54281345	    -12.44696267	      1.03854676	     -7.49999987	    -14.12947494	      4.14303870	     -0.91045702	    134.95595904	    -28.64289056	     40.50608997	     94.39740709	     89.19839929	    146.87779054	    -41.03002190	     53.80164183	     93.96397486	     89.08940813
      3.05000000	     -6.94000434	      1.42271560	      3.33956918	      0.30048215	      0.98843249	     -0.05479858	     19.22289948	     -9.82147068	    -10.43222933	     27.93974749	      0.48764059	    -17.44921635	     -7.60880892	     -7.49999987	     20.13464871	     -6.24208553	     -7.14772673	     28.02234348	      0.48908216	    -16.10850030	      2.79102889	     -7.49999987	    -13.71490298	      3.93412809	     -1.17248033	    136.16969811	    -29.30719745	     41.78836866	     93.96278872	     89.58949132	    147.82803929	    -40.93596652	     54.77501939	     92.96000328	     89.46029392
